HIERARCHY
ROOT Hips
{
	OFFSET 0.000000 0.000000 0.000000
	CHANNELS 6 Xposition Yposition Zposition Zrotation Yrotation Xrotation 
	JOINT LeftUpLeg_virtual
	{
		OFFSET 0.000000 0.000000 0.000000
		CHANNELS 3 Zrotation Yrotation Xrotation
		JOINT LeftUpLeg
		{
			OFFSET 8.479694 -4.795517 -0.379053
			CHANNELS 3 Zrotation Yrotation Xrotation
			JOINT LeftLeg
			{
				OFFSET 0.485052 -32.551468 0.112863
				CHANNELS 3 Zrotation Yrotation Xrotation
				JOINT LeftFoot
				{
					OFFSET 0.438033 -32.635670 -3.012641
					CHANNELS 3 Zrotation Yrotation Xrotation
					JOINT LeftToeBase
					{
						OFFSET 0.970169 -13.225353 11.864223
						CHANNELS 3 Zrotation Yrotation Xrotation
						End Site
						{
							OFFSET 0.000000 0.000000 0.000000
						}
					}
				}
			}
		}
	}
	JOINT RightUpLeg_virtual
	{
		OFFSET 0.000000 0.000000 0.000000
		CHANNELS 3 Zrotation Yrotation Xrotation
		JOINT RightUpLeg
		{
			OFFSET -8.479694 -4.795517 -0.379053
			CHANNELS 3 Zrotation Yrotation Xrotation
			JOINT RightLeg
			{
				OFFSET -0.484100 -32.551483 0.112903
				CHANNELS 3 Zrotation Yrotation Xrotation
				JOINT RightFoot
				{
					OFFSET -0.438985 -32.635651 -3.012681
					CHANNELS 3 Zrotation Yrotation Xrotation
					JOINT RightToeBase
					{
						OFFSET -0.970169 -13.225354 11.864223
						CHANNELS 3 Zrotation Yrotation Xrotation
						End Site
						{
							OFFSET 0.000000 0.000000 0.000000
						}
					}
				}
			}
		}
	}
	JOINT Spine_virtual
	{
		OFFSET 0.000000 0.000000 0.000000
		CHANNELS 3 Zrotation Yrotation Xrotation
		JOINT Spine
		{
			OFFSET 0.000000 7.722015 1.166203
			CHANNELS 3 Zrotation Yrotation Xrotation
			JOINT Spine1
			{
				OFFSET 0.000000 12.024086 0.248766
				CHANNELS 3 Zrotation Yrotation Xrotation
				JOINT Spine2
				{
					OFFSET -0.000000 11.503036 -0.491240
					CHANNELS 3 Zrotation Yrotation Xrotation
					JOINT Neck_virtual
					{
						OFFSET 0.000000 0.000000 0.000000
						CHANNELS 3 Zrotation Yrotation Xrotation
						JOINT Neck
						{
							OFFSET 0.000000 18.430687 -3.123054
							CHANNELS 3 Zrotation Yrotation Xrotation
							JOINT Head
							{
								OFFSET -0.000000 9.051071 1.034021
								CHANNELS 3 Zrotation Yrotation Xrotation
								End Site
								{
									OFFSET 0.000000 0.000000 0.000000
								}
							}
						}
					}
					JOINT LeftShoulder_virtual
					{
						OFFSET 0.000000 0.000000 0.000000
						CHANNELS 3 Zrotation Yrotation Xrotation
						JOINT LeftShoulder
						{
							OFFSET 6.197824 13.665230 -4.064723
							CHANNELS 3 Zrotation Yrotation Xrotation
							JOINT LeftArm
							{
								OFFSET 7.778132 -0.187073 -1.709282
								CHANNELS 3 Zrotation Yrotation Xrotation
								JOINT LeftForeArm
								{
									OFFSET 21.954697 0.000000 -2.041093
									CHANNELS 3 Zrotation Yrotation Xrotation
									JOINT LeftHand
									{
										OFFSET 22.992908 0.000000 -0.870901
										CHANNELS 3 Zrotation Yrotation Xrotation
										End Site
										{
											OFFSET 0.000000 0.000000 0.000000
										}
									}
								}
							}
						}
					}
					JOINT RightShoulder_virtual
					{
						OFFSET 0.000000 0.000000 0.000000
						CHANNELS 3 Zrotation Yrotation Xrotation
						JOINT RightShoulder
						{
							OFFSET -6.197824 13.665230 -4.064723
							CHANNELS 3 Zrotation Yrotation Xrotation
							JOINT RightArm
							{
								OFFSET -7.778132 -0.187073 -1.709282
								CHANNELS 3 Zrotation Yrotation Xrotation
								JOINT RightForeArm
								{
									OFFSET -21.954697 0.000000 -2.041093
									CHANNELS 3 Zrotation Yrotation Xrotation
									JOINT RightHand
									{
										OFFSET -22.992908 0.000000 -0.870901
										CHANNELS 3 Zrotation Yrotation Xrotation
										End Site
										{
											OFFSET 0.000000 0.000000 0.000000
										}
									}
								}
							}
						}
					}
				}
			}
		}
	}
}
MOTION
Frames: 8
Frame Time: 0.033333
7.764621 81.209969 -3.138882 179.942973 -6.387205 179.981044 -0.494828 -1.566180 14.479125 6.060055 -10.042743 -23.408448 1.833362 2.940455 24.273422 0.163615 -4.909652 -9.140844 0.000000 0.000000 0.000000 3.794713 -3.439180 15.199929 -6.243245 6.056667 -21.972208 0.505983 7.029634 29.839157 11.334700 8.076132 -15.129579 0.000000 0.000000 0.000000 5.047936 0.563252 2.902095 -0.316202 -2.546193 -9.312979 -0.700208 -1.768258 10.099661 0.028404 0.014594 0.012552 -1.001197 -0.345946 10.360879 -7.100479 5.474320 -3.265487 0.000000 0.000000 0.000000 0.618265 0.307723 7.293227 -10.967159 -9.080607 4.514376 -50.197943 -29.072010 2.009861 2.507177 -41.929462 5.595540 0.000000 0.000000 0.000000 -3.837806 1.994655 6.701621 31.190045 6.373288 10.162317 39.313094 31.234216 0.812027 -1.894591 30.931017 -1.524347 0.000000 0.000000 0.000000 
7.842814 81.214241 -3.160087 179.923302 -6.280299 179.971673 -0.430356 -1.441858 14.468900 6.125979 -10.330912 -23.529232 1.910914 3.054903 24.307323 0.238271 -4.737999 -8.987638 0.000000 0.000000 0.000000 3.786703 -3.546007 15.150492 -6.177094 5.854013 -22.010196 0.601526 6.997298 29.722996 11.510594 8.338870 -15.381424 0.000000 0.000000 0.000000 5.050991 0.545247 2.871653 -0.264932 -2.493099 -9.323440 -0.729279 -1.739402 10.093909 0.052894 0.029636 -0.036257 -1.021639 -0.298096 10.409755 -7.049991 5.418101 -3.248412 0.000000 0.000000 0.000000 0.586359 0.408626 7.363511 -10.933821 -9.112147 4.554242 -50.201986 -28.943435 2.106282 2.627691 -41.981727 5.643536 0.000000 0.000000 0.000000 -3.857161 2.045940 6.769736 31.314150 6.343719 10.170043 39.575936 31.220668 1.337854 -1.938489 30.783362 -1.532574 0.000000 0.000000 0.000000 
7.952367 81.205360 -3.193486 179.972111 -6.411056 179.975785 -0.330385 -1.543763 14.495509 6.194615 -10.375607 -23.634601 1.946345 3.016240 24.405910 0.144081 -4.766465 -8.945045 0.000000 0.000000 0.000000 3.837070 -3.630462 15.149882 -6.068582 5.797762 -22.035112 0.610648 6.923842 29.740252 11.510885 8.321751 -15.388648 0.000000 0.000000 0.000000 5.107061 0.538595 2.848485 -0.184599 -2.368458 -9.314647 -0.725523 -1.661294 10.100217 0.014758 -0.075410 -0.001564 -1.023501 -0.217953 10.360235 -6.946389 5.049970 -3.168333 0.000000 0.000000 0.000000 0.581493 0.394850 7.315071 -10.921196 -9.114963 4.606852 -50.463958 -28.134625 2.259580 2.689953 -41.644678 5.864405 0.000000 0.000000 0.000000 -3.882214 2.037702 6.684736 31.487643 6.216236 10.212889 39.899595 30.955739 1.941965 -2.004328 30.464392 -1.581253 0.000000 0.000000 0.000000 
8.080770 81.185936 -3.239423 179.985580 -6.595434 179.923261 -0.332734 -1.772061 14.571362 6.230021 -10.265250 -23.633266 2.010191 2.945803 24.505935 0.039207 -4.794115 -9.014221 0.000000 0.000000 0.000000 3.836541 -3.759460 15.197159 -5.947302 5.741155 -22.036811 0.600800 6.867943 29.822153 11.508619 8.276892 -15.439233 0.000000 0.000000 0.000000 5.184331 0.381126 2.915033 -0.095507 -2.276031 -9.247356 -0.726664 -1.595033 10.084928 0.011073 -0.139870 -0.000105 -1.026640 -0.242972 10.288457 -6.863373 5.099832 -3.105459 0.000000 0.000000 0.000000 0.580868 0.304106 7.245872 -11.051179 -8.737092 4.699387 -50.971738 -26.762438 2.686523 2.708544 -40.753516 6.305486 0.000000 0.000000 0.000000 -3.889939 1.995488 6.684359 31.670822 6.107323 10.249634 40.252825 30.336374 2.493395 -2.034956 29.991473 -1.514206 0.000000 0.000000 0.000000 
8.211385 81.157784 -3.299666 179.925010 -6.722645 179.964283 -0.389794 -1.974489 14.592489 6.284220 -10.144228 -23.688542 2.127518 2.830005 24.628884 -0.053076 -4.794550 -9.113401 0.000000 0.000000 0.000000 3.804079 -3.854179 15.209112 -5.828372 5.716884 -22.099164 0.592676 6.827103 29.949451 11.496535 8.235411 -15.519795 0.000000 0.000000 0.000000 5.222909 0.254903 2.979246 -0.024221 -2.282023 -9.212747 -0.760176 -1.699719 10.078448 -0.012639 0.000167 -0.055921 -0.987828 0.074923 10.288292 -6.733769 4.996965 -2.936210 0.000000 0.000000 0.000000 0.600350 0.529952 7.283831 -11.136140 -8.679019 4.864921 -51.643624 -24.817941 3.211568 2.963878 -39.190966 6.631670 0.000000 0.000000 0.000000 -3.858341 2.112751 6.691363 31.888517 5.807020 10.346377 40.769129 29.329894 3.036942 -2.199223 29.220465 -1.637155 0.000000 0.000000 0.000000 
8.328857 81.118538 -3.375675 179.939435 -6.941052 179.976263 -0.367805 -2.249783 14.610642 6.267330 -10.116390 -23.732799 2.225304 2.739596 24.787566 -0.145467 -4.822094 -9.244735 0.000000 0.000000 0.000000 3.791386 -4.039157 15.233665 -5.695908 5.730832 -22.156080 0.588421 6.785019 30.108201 11.436798 8.169859 -15.644526 0.000000 0.000000 0.000000 5.325553 0.098718 2.986956 0.097564 -2.189718 -9.020826 -0.745624 -1.687627 9.981545 0.005656 0.000892 -0.029216 -1.007719 -0.180366 10.214498 -6.697826 4.863733 -2.863350 0.000000 0.000000 0.000000 0.534802 0.584225 7.275889 -11.159567 -8.424762 4.979369 -52.541783 -22.437216 3.698622 3.200438 -36.762892 7.122237 0.000000 0.000000 0.000000 -3.911882 2.141715 6.559172 32.014131 5.332902 10.278638 41.416693 27.606528 3.183481 -2.208383 28.175476 -1.587812 0.000000 0.000000 0.000000 
8.437485 81.085701 -3.475698 179.939162 -7.027560 179.951401 -0.338040 -2.440761 14.641380 6.286283 -10.226851 -23.682803 2.339416 2.762414 24.912943 -0.178071 -4.783709 -9.373964 0.000000 0.000000 0.000000 3.779296 -4.182057 15.283875 -5.568906 5.756620 -22.193163 0.609208 6.794921 30.272208 11.361494 8.128570 -15.728894 0.000000 0.000000 0.000000 5.432032 -0.051014 3.051679 0.237210 -2.105181 -8.861744 -0.755062 -1.682163 9.939827 -0.013880 -0.010311 -0.022742 -0.969913 -0.046419 10.128961 -6.667642 4.621287 -2.694848 0.000000 0.000000 0.000000 0.584618 0.579433 7.152986 -11.220845 -8.007008 5.140006 -53.522373 -19.580499 3.998145 3.676675 -33.633327 7.383845 0.000000 0.000000 0.000000 -3.877974 2.200471 6.481929 32.086163 4.824010 10.302642 42.092933 25.491405 3.187398 -2.329611 26.870627 -1.723457 0.000000 0.000000 0.000000 
8.528440 81.059799 -3.625344 179.979856 -7.090030 179.980689 -0.243151 -2.593206 14.674603 6.263538 -10.278279 -23.665940 2.439838 2.740924 25.036758 -0.201108 -4.767387 -9.470122 0.000000 0.000000 0.000000 3.800836 -4.310412 15.333435 -5.422850 5.784496 -22.206955 0.645335 6.828625 30.414047 11.238346 8.083777 -15.799052 0.000000 0.000000 0.000000 5.540091 -0.094205 3.025871 0.411120 -1.950021 -8.679766 -0.736753 -1.609218 9.887269 0.014759 -0.093021 -0.017606 -1.030191 -0.174387 10.073131 -6.675014 4.457038 -2.553338 0.000000 0.000000 0.000000 0.510951 0.542025 7.120625 -11.102420 -7.665316 5.311743 -54.705113 -16.584522 4.091824 4.297585 -29.868475 7.508157 0.000000 0.000000 0.000000 -3.947044 2.073388 6.432220 31.990031 4.199957 10.252326 42.851835 22.986052 2.897390 -2.436072 25.397293 -1.934823 0.000000 0.000000 0.000000 
